<svg xmlns="http://www.w3.org/2000/svg" viewBox="0 0 4102.5 879.01"><defs><style>.cls-1{fill:#ed8b1a;}</style></defs><g id="Layer_2" data-name="Layer 2"><g id="Layer_1-2" data-name="Layer 1"><path class="cls-1" d="M504,27.59,607.62,237.65a49.5,49.5,0,0,0,37.27,27.08l231.82,33.68c40.61,5.91,56.81,55.8,27.44,84.42L736.4,546.34a49.52,49.52,0,0,0-14.22,43.81L761.77,821c6.94,40.44-35.51,71.27-71.82,52.19l-207.34-109a49.57,49.57,0,0,0-46.07,0l-207.34,109c-36.31,19.09-78.76-11.75-71.82-52.19L197,590.15a49.49,49.49,0,0,0-14.23-43.81L15,382.83c-29.37-28.64-13.17-78.53,27.44-84.42l231.82-33.68a49.5,49.5,0,0,0,37.27-27.08L415.2,27.59C433.34-9.2,485.79-9.2,504,27.59Z"/><path class="cls-1" d="M1564.34,27.59,1668,237.65a49.5,49.5,0,0,0,37.28,27.08l231.82,33.68c40.6,5.91,56.81,55.8,27.43,84.42L1796.79,546.34a49.49,49.49,0,0,0-14.23,43.81L1822.15,821c6.94,40.44-35.5,71.27-71.82,52.19L1543,764.22a49.59,49.59,0,0,0-46.08,0l-207.33,109c-36.32,19.09-78.77-11.75-71.83-52.19l39.6-230.88a49.49,49.49,0,0,0-14.23-43.81L1075.39,382.83c-29.38-28.64-13.18-78.53,27.43-84.42l231.82-33.68a49.5,49.5,0,0,0,37.28-27.08L1475.58,27.59C1493.72-9.2,1546.18-9.2,1564.34,27.59Z"/><path class="cls-1" d="M2634.05,27.59l103.67,210.06A49.5,49.5,0,0,0,2775,264.73l231.82,33.68c40.61,5.91,56.81,55.8,27.44,84.42L2866.5,546.34a49.52,49.52,0,0,0-14.22,43.81L2891.87,821c6.94,40.44-35.51,71.27-71.82,52.19l-207.34-109a49.57,49.57,0,0,0-46.07,0l-207.34,109c-36.31,19.09-78.76-11.75-71.82-52.19l39.59-230.88a49.49,49.49,0,0,0-14.23-43.81L2145.1,382.83c-29.37-28.64-13.17-78.53,27.44-84.42l231.82-33.68a49.5,49.5,0,0,0,37.27-27.08L2545.3,27.59C2563.44-9.2,2615.89-9.2,2634.05,27.59Z"/><path class="cls-1" d="M3687.31,27.59,3791,237.65a49.5,49.5,0,0,0,37.28,27.08l231.82,33.68c40.61,5.91,56.81,55.8,27.43,84.42L3919.76,546.34a49.49,49.49,0,0,0-14.23,43.81L3945.13,821c6.94,40.44-35.51,71.27-71.83,52.19L3666,764.22a49.59,49.59,0,0,0-46.08,0l-207.33,109c-36.32,19.09-78.76-11.75-71.82-52.19l39.59-230.88a49.49,49.49,0,0,0-14.23-43.81L3198.36,382.83c-29.38-28.64-13.17-78.53,27.43-84.42l231.82-33.68a49.5,49.5,0,0,0,37.28-27.08L3598.56,27.59C3616.69-9.2,3669.15-9.2,3687.31,27.59Z"/></g></g></svg>