<svg xmlns="http://www.w3.org/2000/svg" viewBox="0 0 639.23 892.21"><defs><style>.cls-1{fill:#17a5d3;}</style></defs><g id="Layer_2" data-name="Layer 2"><g id="Layer_1-2" data-name="Layer 1"><path class="cls-1" d="M355.56,17.7a45.34,45.34,0,0,0-71.88,0C200.15,126.25,0,404,0,572.6,0,749.13,143.08,892.21,319.62,892.21S639.23,749.13,639.23,572.6C639.23,404,439.08,126.25,355.56,17.7ZM180.16,593.55c0,30.37,8.53,78.6,18.93,121.36,6.29,25.84-25.52,43.53-44.23,24.63-54.68-55.22-71-128.09-71-182.82,0-73.47,55.62-169.26,114.93-269.6,13.55-22.93,48.67-7.46,40.9,18C210.82,399.62,180.16,508.9,180.16,593.55Z"/></g></g></svg>