<svg xmlns="http://www.w3.org/2000/svg" viewBox="0 0 920 919.99"><defs><style>.cls-1,.cls-2{fill:#efcb83;}.cls-2{fill-rule:evenodd;}</style></defs><g id="Layer_2" data-name="Layer 2"><g id="Layer_1-2" data-name="Layer 1"><circle class="cls-1" cx="460.06" cy="460.04" r="230.02"/><path class="cls-2" d="M172.52,459.93a57.46,57.46,0,0,0-57.5-57.5H57.5a57.5,57.5,0,1,0,0,115H115A57.47,57.47,0,0,0,172.52,459.93Z"/><path class="cls-2" d="M175.44,663.23,134.73,704a57.5,57.5,0,0,0,81.32,81.31l40.72-40.71a57.51,57.51,0,0,0-81.33-81.32Z"/><path class="cls-2" d="M460.06,747.47a57.46,57.46,0,0,0-57.5,57.5v57.51a57.5,57.5,0,1,0,115,0L517.5,805A57.41,57.41,0,0,0,460.06,747.47Z"/><path class="cls-2" d="M744.62,663.28a57.46,57.46,0,1,0-81.26,81.27L704,785.2a57.49,57.49,0,0,0,81.31-81.31Z"/><path class="cls-2" d="M862.61,402.43l-57.63.11a57.45,57.45,0,0,0,0,114.89H862.5a57.5,57.5,0,0,0,.11-115Z"/><path class="cls-2" d="M744.62,256.69,785.27,216A57.5,57.5,0,0,0,704,134.64l-40.66,40.77a57.47,57.47,0,0,0,81.26,81.28Z"/><path class="cls-2" d="M460.06,172.39c31.72.23,57.5-25.72,57.5-57.39V57.5a57.5,57.5,0,0,0-115-.1l.11,57.62A57.27,57.27,0,0,0,460.06,172.39Z"/><path class="cls-2" d="M175.55,256.63a57.47,57.47,0,0,0,81.28-81.26l-40.67-40.66A57.54,57.54,0,0,0,134.67,216Z"/></g></g></svg>