<svg xmlns="http://www.w3.org/2000/svg" viewBox="0 0 920 920"><defs><style>.cls-1{fill:#64bdaf;fill-rule:evenodd;}</style></defs><g id="Layer_2" data-name="Layer 2"><g id="Layer_1-2" data-name="Layer 1"><path class="cls-1" d="M292.73,167.27A167.27,167.27,0,1,1,460,334.55H125.45a41.82,41.82,0,0,1,0-83.64H460a83.64,83.64,0,1,0-83.64-83.64v4.18a41.82,41.82,0,1,1-83.63,0Zm414,41.82a41.82,41.82,0,0,1,41.82-41.82h4.18a167.28,167.28,0,0,1,0,334.55H209.09a41.82,41.82,0,1,1,0-83.64H752.73a83.64,83.64,0,0,0,0-167.27h-4.18A41.82,41.82,0,0,1,706.73,209.09ZM0,460a41.82,41.82,0,0,1,41.82-41.82H83.64a41.82,41.82,0,0,1,0,83.64H41.82A41.82,41.82,0,0,1,0,460ZM167.27,627.27a41.83,41.83,0,0,1,41.82-41.82h41.82a41.82,41.82,0,1,1,0,83.64H209.09A41.82,41.82,0,0,1,167.27,627.27Zm167.28,0a41.82,41.82,0,0,1,41.81-41.82H543.64A167.28,167.28,0,1,1,376.36,752.73v-4.18a41.82,41.82,0,0,1,83.64,0v4.18a83.64,83.64,0,1,0,83.64-83.64H376.36A41.81,41.81,0,0,1,334.55,627.27Z"/></g></g></svg>