<svg xmlns="http://www.w3.org/2000/svg" viewBox="0 0 804.26 920"><defs><style>.cls-1{fill:#c42827;}</style></defs><g id="Layer_2" data-name="Layer 2"><g id="Layer_1-2" data-name="Layer 1"><path class="cls-1" d="M465.17,910.59c147.88-29.64,339.09-136,339.09-411.12,0-250.34-183.24-417-315-493.64C460-11.17,425.79,11.18,425.79,45v86.51c0,68.21-28.68,192.72-108.38,244.51-40.68,26.44-84.62-13.13-89.57-61.4L223.78,275c-4.72-46.08-51.65-74.05-88.48-46C69.14,279.49,0,367.87,0,499.47,0,835.89,250.22,920,375.32,920c7.28,0,14.93-.22,22.89-.68C336.43,914,236.55,875.71,236.55,751.77c0-96.95,70.73-162.54,124.47-194.42,14.45-8.58,31.37,2.56,31.37,19.36v27.88c0,21.33,8.25,54.68,27.89,77.5,22.23,25.84,54.85-1.23,57.48-35.2.83-10.71,11.61-17.55,20.89-12.12,30.34,17.73,69.06,55.61,69.06,117C567.71,848.66,514.3,893.23,465.17,910.59Z"/></g></g></svg>