<?xml version="1.0" encoding="iso-8859-1"?>
<!-- Uploaded to: SVG Repo, www.svgrepo.com, Generator: SVG Repo Mixer Tools -->
<svg fill="#000000" height="800px" width="800px" version="1.1" id="Layer_1" xmlns="http://www.w3.org/2000/svg" xmlns:xlink="http://www.w3.org/1999/xlink" 
	 viewBox="0 0 512.001 512.001" xml:space="preserve">
<g>
	<g>
		<path d="M499.038,359.735c-12.494-36.212-40.24-87.745-101.467-127.609l-4.487-2.922l-0.294-5.347
			c-3.99-72.775-34.698-122.455-59.755-151.316c-29.494-33.973-59.137-49.214-62.409-50.834l-14.615-7.217l-14.608,7.216
			c-1.307,0.645-32.359,16.214-62.414,50.835c-25.058,28.859-55.767,78.539-59.756,151.315l-0.294,5.347l-4.487,2.922
			c-61.224,39.864-88.971,91.398-101.467,127.61c-14.678,42.544-13.05,75.821-12.818,79.464l1.059,16.264l13.546,9.04
			c3.037,2.028,30.946,20.058,75.236,28.642c14.966,2.897,30.34,4.366,45.697,4.366c39.527,0,78.396-9.566,115.523-28.43l4.783-2.43
			l4.783,2.429c37.127,18.866,75.995,28.43,115.523,28.43c15.363,0,30.737-1.469,45.698-4.365
			c44.231-8.57,72.196-26.613,75.236-28.64l13.547-9.041l1.056-16.258C511.948,437.754,514.015,403.142,499.038,359.735z
			 M437.067,420.656c-9.426,3.483-19.17,6.171-28.963,7.988c-10.78,2-21.684,3.016-32.41,3.017c-13.039,0-26.282-1.534-39.358-4.558
			l-17.377-4.021l11.885-13.299c0.738-0.827,1.469-1.658,2.19-2.489c13.61-15.677,25.194-33.187,34.427-52.045l0.048-0.096
			c1.202-2.393,2.397-4.877,3.552-7.385l1.507-3.271l-2.497-2.596c-10.478-10.896-23.043-20.608-37.345-28.866
			c-3.378-1.951-6.861-3.822-10.352-5.562l-5.24-2.611l-2.056,5.484c-2.794,7.448-6.077,14.701-9.76,21.559l-0.053,0.097
			c-4.127,7.493-8.692,14.564-13.566,21.007c-15.139,20.042-35.199,37.352-59.619,51.452c-10.844,6.261-22.038,11.541-33.26,15.687
			l-0.591,0.219c-0.469,0.175-0.939,0.348-1.409,0.517c-0.634,0.227-1.269,0.444-1.903,0.662l-0.507,0.175
			c-0.779,0.266-1.558,0.53-2.341,0.788c-0.743,0.244-1.486,0.486-2.244,0.724c-0.93,0.293-1.86,0.575-2.748,0.84
			c0,0-1.527,0.46-1.849,0.553c-1.506,0.433-3.011,0.847-4.518,1.241l-1.275,0.32c-1.182,0.3-2.365,0.589-3.553,0.867
			c-0.505,0.118-1.013,0.231-1.524,0.344c-1.178,0.264-2.356,0.515-3.524,0.752l-1.275,0.259c-3.176,0.621-6.42,1.161-9.716,1.618
			l-1.083,0.142c-1.254,0.166-2.507,0.317-3.772,0.455l-1.281,0.138c-1.219,0.125-3.864,0.354-4.476,0.405l-0.304,0.02
			c-0.347,0.02-8.561,0.471-12.603,0.471c-10.715,0-21.617-1.014-32.405-3.016c-9.788-1.816-19.522-4.5-28.932-7.975l-8.23-3.041
			l1.482-8.648c1.696-9.889,4.238-19.661,7.558-29.043c8.132-22.992,20.714-43.707,37.392-61.569l12.184-13.048l5.564,16.963
			c0.382,1.164,0.772,2.324,1.171,3.483c3.433,9.952,7.616,19.86,12.482,29.544c5.639,11.508,12.243,22.651,19.628,33.118
			l2.084,2.952l3.506-0.875c14.657-3.655,29.391-9.725,43.796-18.043c3.401-1.964,6.797-4.063,10.093-6.24l4.885-3.226l-3.711-4.526
			c-9.109-11.105-16.833-23.267-22.959-36.149c-1.252-2.63-2.471-5.375-3.627-8.161l-0.054-0.132
			c-3.579-8.971-6.497-18.533-8.672-28.431c-3.189-14.564-4.805-29.932-4.805-45.68c0-32.213,6.484-61.544,19.266-87.165
			c6.304-12.676,14.336-24.76,23.871-35.92c6.462-7.561,13.653-14.65,21.372-21.066l6.749-5.609l6.748,5.612
			c7.719,6.418,14.91,13.507,21.373,21.068c15.762,18.444,27.373,39.571,34.51,62.793l5.258,17.111l-17.52-3.68
			c-1.164-0.244-2.328-0.478-3.491-0.704c-14.962-2.898-30.336-4.367-45.614-4.367L256.095,188l-1.266-0.009
			c-7.356,0-14.862,0.349-22.307,1.038l-3.588,0.333l-0.997,3.465c-4.137,14.377-6.235,30.221-6.235,47.092
			c0,3.746,0.116,7.628,0.343,11.535l0.341,5.858l5.79-0.958c9.554-1.581,19.242-2.381,28.795-2.381
			c3.734,0,7.545,0.123,11.33,0.364l0.129,0.009c3.406,0.259,7.495,0.705,11.253,1.227c0.963,0.137,1.926,0.29,2.877,0.44
			c0.85,0.136,1.702,0.278,2.565,0.43l0.151,0.025c0.845,0.148,1.69,0.297,2.535,0.456c0.4,0.076,1.679,0.334,1.679,0.334
			c0.866,0.174,1.728,0.349,2.602,0.537c0.555,0.119,1.107,0.242,1.658,0.367c0.889,0.2,1.781,0.408,2.669,0.622l1.581,0.386
			c0.963,0.242,1.926,0.495,2.854,0.742l1.364,0.364c1.368,0.377,2.735,0.767,4.212,1.211l0.465,0.143
			c1.207,0.366,2.415,0.745,3.64,1.142c0.387,0.126,1.789,0.599,1.789,0.599c0.759,0.254,1.516,0.51,2.298,0.783
			c0.629,0.218,1.258,0.446,1.927,0.687l0.212,0.077c0.619,0.224,1.237,0.452,1.862,0.686c0.807,0.302,1.613,0.607,2.473,0.94
			l1.342,0.531c0.905,0.359,1.81,0.719,2.793,1.127l0.163,0.067c8.695,3.607,17.377,7.903,25.804,12.769
			c6.984,4.031,13.703,8.398,19.969,12.977l5.625,4.11l3.508,2.948l1.929,1.628c14.211,11.986,26.331,25.703,36.048,40.811
			l0.113,0.169l0.136,0.228c0.311,0.521,7.65,12.841,10.706,19.266c6.951,14.611,11.856,30.014,14.579,45.781l1.494,8.655
			L437.067,420.656z"/>
	</g>
</g>
</svg>